<svg width="32" height="33" viewBox="0 0 32 33" fill="none" xmlns="http://www.w3.org/2000/svg">
<path d="M28 0.0996094H4C1.8 0.0996094 0 1.89961 0 4.09961V32.0996H32V4.09961C32 1.89961 30.2 0.0996094 28 0.0996094ZM29.3333 29.4329H2.66667V4.09961C2.66667 3.36628 3.26667 2.76628 4 2.76628H28C28.7333 2.76628 29.3333 3.36628 29.3333 4.09961V29.4329ZM10.6667 17.4329H25.3333V20.0996H10.6667V17.4329ZM14.6667 22.7663H25.3333V25.4329H14.6667V22.7663ZM6.66667 12.0996H25.3333V14.7663H6.66667V12.0996ZM20 6.76628H25.3333V9.43294H20V6.76628Z" fill="#506E4A"/>
</svg>
