<svg width="32" height="33" viewBox="0 0 32 33" fill="none" xmlns="http://www.w3.org/2000/svg">
<path d="M28 0.973999H4C1.8 0.973999 0 2.774 0 4.974V32.974H32V4.974C32 2.774 30.2 0.973999 28 0.973999ZM29.3333 30.3073H2.66667V4.974C2.66667 4.24067 3.26667 3.64067 4 3.64067H28C28.7333 3.64067 29.3333 4.24067 29.3333 4.974V30.3073ZM10.6667 18.3073H25.3333V20.974H10.6667V18.3073ZM14.6667 23.6407H25.3333V26.3073H14.6667V23.6407ZM6.66667 12.974H25.3333V15.6407H6.66667V12.974ZM20 7.64067H25.3333V10.3073H20V7.64067Z" fill="#506E4A"/>
</svg>
