<svg width="20" height="20" viewBox="0 0 20 20" fill="none" xmlns="http://www.w3.org/2000/svg">
<path fill-rule="evenodd" clip-rule="evenodd" d="M17.34 2.73522C17.2202 2.72543 17.0533 2.72463 16.7485 2.72463H13.253C12.6852 2.72463 12.2249 2.26434 12.2249 1.69655C12.2249 1.12875 12.6852 0.66847 13.253 0.66847L16.7813 0.66846C17.0408 0.668429 17.2935 0.668398 17.5074 0.685886C17.7424 0.70509 18.0198 0.750387 18.2988 0.892571C18.6857 1.08971 19.0003 1.40426 19.1974 1.79115C19.3396 2.0702 19.3849 2.3475 19.4041 2.58252C19.4216 2.79652 19.4215 3.0492 19.4215 3.30867V6.83696C19.4215 7.40475 18.9612 7.86504 18.3934 7.86504C17.8256 7.86504 17.3653 7.40475 17.3653 6.83696V3.34148C17.3653 3.03663 17.3645 2.86981 17.3547 2.74996C17.3543 2.74519 17.3539 2.74066 17.3536 2.7364C17.3493 2.73601 17.3448 2.73561 17.34 2.73522ZM3.55624 0.66846C3.56717 0.66847 3.57809 0.66847 3.58903 0.66847H7.08451C7.65231 0.66846 8.11259 1.12875 8.11259 1.69655C8.11259 2.26434 7.65231 2.72462 7.08452 2.72463H3.58903C3.28419 2.72463 3.11737 2.72544 2.99752 2.73522C2.99274 2.73561 2.98822 2.73601 2.98395 2.73641C2.98356 2.74067 2.98317 2.74519 2.98278 2.74996C2.97299 2.86982 2.97219 3.03663 2.97219 3.34148V6.83696C2.97219 7.40475 2.5119 7.86504 1.94411 7.86504C1.37631 7.86504 0.916029 7.40475 0.916029 6.83696V3.34148C0.916029 3.33053 0.916018 3.31961 0.916018 3.30869C0.915987 3.04922 0.915956 2.79653 0.933444 2.58252C0.952649 2.3475 0.997946 2.0702 1.14013 1.79116C1.33726 1.40426 1.65182 1.08971 2.0387 0.892582C2.31776 0.750398 2.59506 0.70509 2.83007 0.685886C3.04408 0.668408 3.29677 0.668429 3.55624 0.66846ZM1.94411 11.9774C2.5119 11.9774 2.97219 12.4376 2.97219 13.0054V16.5009C2.97219 16.8058 2.97299 16.9726 2.98278 17.0925C2.98317 17.0972 2.98356 17.1017 2.98395 17.1061C2.98822 17.1064 2.99274 17.1068 2.99752 17.1072C3.11737 17.117 3.28419 17.1178 3.58903 17.1178H7.08452C7.65231 17.1178 8.11259 17.578 8.11259 18.1459C8.11259 18.7137 7.65231 19.1739 7.08451 19.1739H3.55623C3.29676 19.1739 3.04408 19.174 2.83007 19.1566C2.59506 19.1373 2.31776 19.092 2.0387 18.9498C1.65182 18.7527 1.33726 18.4381 1.14013 18.0513C0.997946 17.7723 0.952649 17.4949 0.933444 17.2599C0.915956 17.0459 0.915987 16.7932 0.916018 16.5337L0.916029 13.0054C0.916029 12.4376 1.37631 11.9774 1.94411 11.9774ZM18.3934 11.9774C18.9612 11.9774 19.4215 12.4376 19.4215 13.0054V16.5337C19.4215 16.7932 19.4216 17.0459 19.4041 17.2599C19.3849 17.4949 19.3396 17.7723 19.1974 18.0513C19.0003 18.4381 18.6857 18.7527 18.2988 18.9498C18.0198 19.092 17.7424 19.1373 17.5074 19.1566C17.2935 19.174 17.0408 19.1739 16.7813 19.1739H13.253C12.6852 19.1739 12.2249 18.7137 12.2249 18.1459C12.2249 17.578 12.6852 17.1178 13.253 17.1178H16.7485C17.0533 17.1178 17.2202 17.117 17.34 17.1072C17.3448 17.1068 17.3493 17.1064 17.3536 17.1061C17.3539 17.1017 17.3543 17.0972 17.3547 17.0925C17.3645 16.9726 17.3653 16.8058 17.3653 16.5009V13.0054C17.3653 12.4376 17.8256 11.9774 18.3934 11.9774Z" fill="black"/>
</svg>
