<svg width="13" height="19" viewBox="0 0 13 19" fill="none" xmlns="http://www.w3.org/2000/svg">
<path d="M6.46765 0.852539C3.21755 0.852539 0.573303 3.64303 0.573303 7.07518C0.573303 10.3581 5.87672 17.9506 6.10056 18.27C6.14223 18.3285 6.19729 18.3762 6.26115 18.4091C6.32501 18.442 6.39581 18.4592 6.46765 18.4592C6.53949 18.4592 6.61029 18.442 6.67415 18.4091C6.73801 18.3762 6.79307 18.3285 6.83474 18.27C7.06455 17.9506 12.362 10.37 12.362 7.07518C12.362 3.64303 9.71775 0.852539 6.46765 0.852539ZM3.71298 7.07518C3.8622 3.42516 9.08504 3.42516 9.22233 7.07518C9.0731 10.7282 3.8622 10.7252 3.71298 7.07518Z" fill="black"/>
</svg>
