<svg width="92" height="12" viewBox="0 0 92 12" fill="none" xmlns="http://www.w3.org/2000/svg">
<g clip-path="url(#clip0_3061_4840)">
<path d="M50.379 1.54293H52.3774V10.0748H50.379V1.54293ZM53.3292 1.54293H55.612L59.0947 7.71107L62.4096 1.54293H64.408L59.6782 10.0748H58.296L53.3328 1.54293H53.3292ZM65.3598 1.54293H67.3582V10.0748H65.3598V1.54293ZM81.8248 1.54293H83.1887L89.235 6.57083C89.4137 6.71563 89.5814 6.86042 89.7419 7.00883C89.9024 7.15724 90.0628 7.32013 90.216 7.4975C90.1941 7.14638 90.1758 6.84594 90.1576 6.59617C90.1394 6.34641 90.1321 6.15818 90.1321 6.02424V1.54293H91.9299V10.0748H90.5661L84.2535 4.80075C84.1296 4.69216 84.0129 4.57994 83.8962 4.47135C83.7795 4.36275 83.6591 4.23968 83.5388 4.10937C83.5716 4.43877 83.5935 4.71749 83.6044 4.94554C83.6154 5.17359 83.6227 5.34372 83.6227 5.46679V10.0784H81.8248V1.54293ZM44.628 6.84956H45.7622C46.4295 6.84956 46.9182 6.72287 47.2282 6.46948C47.5381 6.21609 47.695 5.79258 47.695 5.19531V3.19356C47.695 2.59991 47.5381 2.17639 47.2282 1.91939C46.9182 1.666 46.4295 1.53931 45.7622 1.53931H38.3994V10.0712H40.365V6.84594V5.39078V3.00895H44.8614C45.1714 3.00895 45.4012 3.04876 45.5434 3.13202C45.6856 3.21528 45.7585 3.39989 45.7585 3.68585V4.71026C45.7585 4.99622 45.6856 5.18083 45.5434 5.26409C45.3975 5.34734 45.1714 5.38716 44.8614 5.38716H41.7398L40.9594 6.84232H42.265L45.7294 10.0676H48.5957L44.6317 6.84232L44.628 6.84956ZM75.5232 1.54293H73.5905L68.7257 10.0748H70.7241L71.7233 8.20699H76.5735L75.7457 6.66857H72.573L74.4876 3.19718L76.3365 6.66857H76.3328L77.1606 8.20699H77.1679L78.2 10.0748H80.45L75.5196 1.54293H75.5232Z" fill="white"/>
<path d="M-0.0664062 1.54321H1.5491L5.59698 6.70143L9.56099 1.54321H11.1619V10.0751H9.31301V4.80104C9.31301 4.71416 9.31666 4.59471 9.3276 4.4463C9.33854 4.29788 9.35677 4.11327 9.37865 3.89247C9.29113 4.0807 9.20361 4.25083 9.11974 4.40648C9.03586 4.56213 8.95563 4.68882 8.87905 4.78656L5.64804 9.05069H5.2469L2.01588 4.76846C1.91377 4.63453 1.82261 4.49697 1.73144 4.3558C1.64027 4.21463 1.56369 4.05898 1.49805 3.89247C1.53087 4.24721 1.5491 4.54765 1.5491 4.80104V10.0751H-0.0664062V1.54321Z" fill="white"/>
<path d="M16.3913 6.25595L11.9277 1.54297H14.5935L17.5401 4.81527L20.5049 1.54297H22.8534L18.4043 6.20528V10.0748H16.3877V6.25595H16.3913Z" fill="white"/>
<path d="M28.4775 0.940573L24.4548 4.93353C23.9863 5.39861 23.9863 6.15266 24.4548 6.61774L28.4775 10.6107C28.946 11.0758 29.7057 11.0758 30.1742 10.6107L34.1969 6.61774C34.6654 6.15266 34.6654 5.39861 34.1969 4.93353L30.1742 0.940573C29.7057 0.475492 28.946 0.475492 28.4775 0.940573Z" fill="#FCB40C"/>
</g>
<defs>
<clipPath id="clip0_3061_4840">
<rect width="92" height="11" fill="white" transform="translate(0 0.591064)"/>
</clipPath>
</defs>
</svg>
