<svg width="94" height="32" viewBox="0 0 94 32" fill="none" xmlns="http://www.w3.org/2000/svg">
<g clip-path="url(#clip0_3124_35)">
<path d="M51.64 1.91585H53.6602V10.4477H51.64V1.91585ZM54.6223 1.91585H56.93L60.4505 8.084L63.8014 1.91585H65.8215L61.0403 10.4477H59.6432L54.626 1.91585H54.6223ZM66.7837 1.91585H68.8038V10.4477H66.7837V1.91585ZM83.4277 1.91585H84.8064L90.9184 6.94376C91.099 7.08855 91.2686 7.23334 91.4308 7.38176C91.593 7.53017 91.7552 7.69306 91.91 7.87043C91.8879 7.51931 91.8695 7.21886 91.8511 6.9691C91.8326 6.71933 91.8253 6.5311 91.8253 6.39717V1.91585H93.6427V10.4477H92.2639L85.8828 5.17368C85.7575 5.06508 85.6395 4.95287 85.5216 4.84427C85.4036 4.73568 85.2819 4.61261 85.1603 4.48229C85.1935 4.81169 85.2156 5.09042 85.2266 5.31847C85.2377 5.54651 85.2451 5.71665 85.2451 5.83972V10.4513H83.4277V1.91585ZM45.8266 7.22248H46.9731C47.6477 7.22248 48.1417 7.09579 48.455 6.8424C48.7683 6.58902 48.9269 6.1655 48.9269 5.56823V3.56648C48.9269 2.97283 48.7683 2.54932 48.455 2.29231C48.1417 2.03892 47.6477 1.91223 46.9731 1.91223H39.5303V10.4441H41.5172V7.21886V5.7637V3.38187H46.0625C46.3759 3.38187 46.6081 3.42169 46.7519 3.50495C46.8957 3.5882 46.9694 3.77281 46.9694 4.05878V5.08318C46.9694 5.36914 46.8957 5.55375 46.7519 5.63701C46.6044 5.72027 46.3759 5.76008 46.0625 5.76008H42.907L42.1181 7.21524H43.4378L46.9399 10.4405H49.8374L45.8303 7.21524L45.8266 7.22248ZM77.0576 1.91585H75.1038L70.1862 10.4477H72.2063L73.2164 8.57991H78.1193L77.2825 7.04149H74.0753L76.0107 3.5701L77.8797 7.04149H77.876L78.7128 8.57991H78.7202L79.7634 10.4477H82.0379L77.0539 1.91585H77.0576Z" fill="white"/>
<path d="M0.646484 1.91602H2.27955L6.37143 7.07424L10.3785 1.91602H11.9969V10.4479H10.1279V5.17384C10.1279 5.08696 10.1315 4.96751 10.1426 4.8191C10.1537 4.67069 10.1721 4.48608 10.1942 4.26527C10.1057 4.4535 10.0173 4.62363 9.93248 4.77928C9.84769 4.93493 9.76659 5.06163 9.68918 5.15936L6.42304 9.42349H6.01754L2.75141 5.14126C2.64819 5.00733 2.55603 4.86978 2.46387 4.7286C2.37171 4.58743 2.2943 4.43178 2.22794 4.26527C2.26112 4.62001 2.27955 4.92045 2.27955 5.17384V10.4479H0.646484V1.91602Z" fill="white"/>
<path d="M17.2826 6.62888L12.7705 1.91589H15.4653L18.4438 5.1882L21.4409 1.91589H23.8149L19.3175 6.5782V10.4478H17.279V6.62888H17.2826Z" fill="white"/>
<path d="M15.0457 31.9639H14.972C12.6164 31.9639 10.7031 30.0816 10.7031 27.7721V18.4005C10.7031 16.0874 12.62 14.2087 14.972 14.2087H15.0457C17.4013 14.2087 19.3145 16.091 19.3145 18.4005V27.7721C19.3145 30.0852 17.3976 31.9639 15.0457 31.9639ZM14.972 16.3842C13.8402 16.3842 12.915 17.2892 12.915 18.4041V27.7758C12.915 28.887 13.8365 29.7956 14.972 29.7956H15.0457C16.1774 29.7956 17.1027 28.8907 17.1027 27.7758V18.4041C17.1027 17.2928 16.1811 16.3842 15.0457 16.3842H14.972Z" fill="#506E4A"/>
<path d="M9.1952 16.6521H1.43906C1.00133 16.6521 0.646484 17.0005 0.646484 17.4304V20.3443C0.646484 20.7741 1.00133 21.1226 1.43906 21.1226H9.1952C9.63293 21.1226 9.98777 20.7741 9.98777 20.3443V17.4304C9.98777 17.0005 9.63293 16.6521 9.1952 16.6521Z" fill="#506E4A"/>
<path d="M73.471 16.6521H20.8258C20.3881 16.6521 20.0332 17.0005 20.0332 17.4304V20.3443C20.0332 20.7741 20.3881 21.1226 20.8258 21.1226H73.471C73.9087 21.1226 74.2635 20.7741 74.2635 20.3443V17.4304C74.2635 17.0005 73.9087 16.6521 73.471 16.6521Z" fill="#506E4A"/>
<path d="M79.3211 31.9639H79.2473C76.8917 31.9639 74.9785 30.0816 74.9785 27.7721V18.4005C74.9785 16.0874 76.8954 14.2087 79.2473 14.2087H79.3211C81.6767 14.2087 83.5899 16.091 83.5899 18.4005V27.7721C83.5899 30.0852 81.673 31.9639 79.3211 31.9639ZM79.2473 16.3842C78.1156 16.3842 77.1903 17.2892 77.1903 18.4041V27.7758C77.1903 28.887 78.1119 29.7956 79.2473 29.7956H79.3211C80.4528 29.7956 81.3781 28.8907 81.3781 27.7758V18.4041C81.3781 17.2928 80.4565 16.3842 79.3211 16.3842H79.2473Z" fill="#506E4A"/>
<path d="M92.8573 16.6521H85.1012C84.6634 16.6521 84.3086 17.0005 84.3086 17.4304V20.3443C84.3086 20.7741 84.6634 21.1226 85.1012 21.1226H92.8573C93.295 21.1226 93.6499 20.7741 93.6499 20.3443V17.4304C93.6499 17.0005 93.295 16.6521 92.8573 16.6521Z" fill="#506E4A"/>
<path d="M29.5002 1.31338L25.4338 5.30633C24.9601 5.77141 24.9601 6.52546 25.4338 6.99054L29.5002 10.9835C29.9738 11.4486 30.7417 11.4486 31.2153 10.9835L35.2817 6.99054C35.7554 6.52546 35.7554 5.77141 35.2817 5.30633L31.2153 1.31338C30.7417 0.848295 29.9738 0.848295 29.5002 1.31338Z" fill="#FCB40C"/>
</g>
<defs>
<clipPath id="clip0_3124_35">
<rect width="93" height="31" fill="white" transform="translate(0.646484 0.963867)"/>
</clipPath>
</defs>
</svg>
