<svg width="93" height="32" viewBox="0 0 93 32" fill="none" xmlns="http://www.w3.org/2000/svg">
<g clip-path="url(#clip0_3061_4876)">
<path d="M50.9937 1.60299H53.0138V10.1349H50.9937V1.60299ZM53.9759 1.60299H56.2836L59.8041 7.77113L63.155 1.60299H65.1752L60.3939 10.1349H58.9968L53.9796 1.60299H53.9759ZM66.1373 1.60299H68.1575V10.1349H66.1373V1.60299ZM82.7813 1.60299H84.16L90.272 6.63089C90.4527 6.77569 90.6223 6.92048 90.7845 7.06889C90.9467 7.2173 91.1089 7.38019 91.2637 7.55756C91.2416 7.20644 91.2231 6.906 91.2047 6.65623C91.1863 6.40647 91.1789 6.21824 91.1789 6.0843V1.60299H92.9963V10.1349H91.6176L85.2365 4.86081C85.1111 4.75221 84.9932 4.64 84.8752 4.53141C84.7572 4.42281 84.6356 4.29974 84.5139 4.16943C84.5471 4.49883 84.5692 4.77755 84.5803 5.0056C84.5913 5.23365 84.5987 5.40378 84.5987 5.52685V10.1385H82.7813V1.60299ZM45.1802 6.90962H46.3267C47.0013 6.90962 47.4953 6.78292 47.8086 6.52954C48.122 6.27615 48.2805 5.85264 48.2805 5.25537V3.25362C48.2805 2.65997 48.122 2.23645 47.8086 1.97944C47.4953 1.72606 47.0013 1.59937 46.3267 1.59937H38.8839V10.1312H40.8709V6.906V5.45084V3.06901H45.4162C45.7295 3.06901 45.9618 3.10882 46.1055 3.19208C46.2493 3.27533 46.323 3.45994 46.323 3.74591V4.77031C46.323 5.05628 46.2493 5.24089 46.1055 5.32414C45.9581 5.4074 45.7295 5.44722 45.4162 5.44722H42.2606L41.4717 6.90238H42.7915L46.2935 10.1276H49.191L45.1839 6.90238L45.1802 6.90962ZM76.4113 1.60299H74.4575L69.5398 10.1349H71.56L72.5701 8.26705H77.4729L76.6361 6.72863H73.429L75.3643 3.25724L77.2333 6.72863H77.2296L78.0664 8.26705H78.0738L79.1171 10.1349H81.3916L76.4076 1.60299H76.4113Z" fill="#151515"/>
<path d="M0 1.60303H1.63307L5.72495 6.76125L9.73204 1.60303H11.3504V10.1349H9.48137V4.86085C9.48137 4.77398 9.48506 4.65452 9.49612 4.50611C9.50718 4.3577 9.52561 4.17309 9.54772 3.95228C9.45925 4.14051 9.37078 4.31064 9.28599 4.46629C9.20121 4.62194 9.12011 4.74864 9.04269 4.84637L5.77656 9.1105H5.37106L2.10492 4.82827C2.0017 4.69434 1.90954 4.55679 1.81739 4.41561C1.72523 4.27444 1.64781 4.11879 1.58146 3.95228C1.61463 4.30702 1.63307 4.60746 1.63307 4.86085V10.1349H0V1.60303Z" fill="#151515"/>
<path d="M16.6362 6.31601L12.124 1.60303H14.8188L17.7974 4.87533L20.7944 1.60303H23.1684L18.671 6.26533V10.1349H16.6325V6.31601H16.6362Z" fill="#151515"/>
<path d="M14.399 31.6509H14.3252C11.9696 31.6509 10.0564 29.7686 10.0564 27.4592V18.0875C10.0564 15.7744 11.9733 13.8958 14.3252 13.8958H14.399C16.7545 13.8958 18.6678 15.778 18.6678 18.0875V27.4592C18.6678 29.7722 16.7509 31.6509 14.399 31.6509ZM14.3252 16.0713C13.1935 16.0713 12.2682 16.9762 12.2682 18.0911V27.4628C12.2682 28.5741 13.1898 29.4826 14.3252 29.4826H14.399C15.5307 29.4826 16.456 28.5777 16.456 27.4628V18.0911C16.456 16.9798 15.5344 16.0713 14.399 16.0713H14.3252Z" fill="#506E4A"/>
<path d="M8.54872 16.3391H0.792572C0.354846 16.3391 0 16.6875 0 17.1174V20.0313C0 20.4611 0.354846 20.8096 0.792572 20.8096H8.54872C8.98644 20.8096 9.34129 20.4611 9.34129 20.0313V17.1174C9.34129 16.6875 8.98644 16.3391 8.54872 16.3391Z" fill="#506E4A"/>
<path d="M72.8245 16.3391H20.1793C19.7416 16.3391 19.3867 16.6875 19.3867 17.1174V20.0313C19.3867 20.4611 19.7416 20.8096 20.1793 20.8096H72.8245C73.2622 20.8096 73.6171 20.4611 73.6171 20.0313V17.1174C73.6171 16.6875 73.2622 16.3391 72.8245 16.3391Z" fill="#506E4A"/>
<path d="M78.6747 31.6509H78.601C76.2454 31.6509 74.3322 29.7686 74.3322 27.4592V18.0875C74.3322 15.7744 76.2491 13.8958 78.601 13.8958H78.6747C81.0303 13.8958 82.9435 15.778 82.9435 18.0875V27.4592C82.9435 29.7722 81.0266 31.6509 78.6747 31.6509ZM78.601 16.0713C77.4693 16.0713 76.544 16.9762 76.544 18.0911V27.4628C76.544 28.5741 77.4656 29.4826 78.601 29.4826H78.6747C79.8064 29.4826 80.7317 28.5777 80.7317 27.4628V18.0911C80.7317 16.9798 79.8101 16.0713 78.6747 16.0713H78.601Z" fill="#506E4A"/>
<path d="M92.2108 16.3391H84.4547C84.017 16.3391 83.6621 16.6875 83.6621 17.1174V20.0313C83.6621 20.4611 84.017 20.8096 84.4547 20.8096H92.2108C92.6486 20.8096 93.0034 20.4611 93.0034 20.0313V17.1174C93.0034 16.6875 92.6486 16.3391 92.2108 16.3391Z" fill="#506E4A"/>
<path d="M28.8537 1.00039L24.7873 4.99334C24.3136 5.45843 24.3136 6.21247 24.7873 6.67755L28.8537 10.6705C29.3273 11.1356 30.0952 11.1356 30.5689 10.6705L34.6353 6.67755C35.1089 6.21247 35.1089 5.45843 34.6353 4.99335L30.5689 1.00039C30.0952 0.535307 29.3273 0.535307 28.8537 1.00039Z" fill="#FCB40C"/>
</g>
<defs>
<clipPath id="clip0_3061_4876">
<rect width="93" height="31" fill="white" transform="translate(0 0.650879)"/>
</clipPath>
</defs>
</svg>
