<svg width="18" height="20" viewBox="0 0 18 20" fill="none" xmlns="http://www.w3.org/2000/svg">
<path d="M16.9185 1.61703C16.8078 1.49322 16.6287 1.49322 16.5179 1.61703C16.4071 1.74085 16.4071 1.94098 16.5179 2.0648C17.5764 3.24787 17.5764 5.17288 16.5179 6.35627C16.4071 6.48008 16.4071 6.68022 16.5179 6.80403C16.5732 6.86578 16.6457 6.89682 16.7182 6.89682C16.7908 6.89682 16.8633 6.86578 16.9185 6.80403C18.1981 5.37428 18.1981 3.0471 16.9185 1.61703Z" fill="black"/>
<path d="M15.7257 2.33774C15.6149 2.21392 15.4359 2.21392 15.3251 2.33774C15.2143 2.46155 15.2143 2.66169 15.3251 2.7855C15.6756 3.17722 15.8685 3.69909 15.8685 4.25452C15.8685 4.80995 15.6756 5.3315 15.3251 5.72322C15.2143 5.84704 15.2143 6.04717 15.3251 6.17099C15.3803 6.23274 15.4529 6.26377 15.5254 6.26377C15.5979 6.26377 15.6705 6.23274 15.7257 6.17099C16.1833 5.65989 16.4352 4.97905 16.4352 4.25452C16.4352 3.52999 16.1836 2.84884 15.7257 2.33774Z" fill="black"/>
<path d="M2.23931 2.0648C2.35009 1.94098 2.35009 1.74085 2.23931 1.61703C2.12853 1.49322 1.94946 1.49322 1.83868 1.61703C0.559145 3.0471 0.559145 5.37397 1.83868 6.80403C1.89393 6.86578 1.96646 6.89682 2.03899 6.89682C2.11153 6.89682 2.18406 6.86578 2.23931 6.80403C2.35009 6.68022 2.35009 6.48008 2.23931 6.35627C1.18049 5.1732 1.18049 3.24818 2.23931 2.0648Z" fill="black"/>
<path d="M3.43273 2.25033C3.32195 2.12652 3.14288 2.12652 3.0321 2.25033C2.57452 2.76143 2.32263 3.44227 2.32263 4.1668C2.32263 4.89133 2.57452 5.57217 3.0321 6.08358C3.08735 6.14533 3.15988 6.17637 3.23242 6.17637C3.30495 6.17637 3.37748 6.14533 3.43273 6.08358C3.54352 5.95977 3.54352 5.75963 3.43273 5.63582C3.08225 5.2441 2.8893 4.72223 2.8893 4.1668C2.8893 3.61137 3.08197 3.08982 3.43273 2.6981C3.54323 2.5746 3.54323 2.37415 3.43273 2.25033Z" fill="black"/>
<path d="M9.3788 17.5867C9.69176 17.5867 9.94547 17.3032 9.94547 16.9534C9.94547 16.6036 9.69176 16.3201 9.3788 16.3201C9.06584 16.3201 8.81213 16.6036 8.81213 16.9534C8.81213 17.3032 9.06584 17.5867 9.3788 17.5867Z" fill="black"/>
<path d="M12.9474 0.170166H5.81022C5.122 0.170166 4.56213 0.796216 4.56213 1.56508V17.7749C4.56213 18.5441 5.122 19.1702 5.81022 19.1702H12.9471C13.6356 19.1702 14.1955 18.5441 14.1955 17.7752V1.56508C14.1955 0.796216 13.6356 0.170166 12.9474 0.170166ZM10.2288 1.12017H10.5121C10.6685 1.12017 10.7955 1.26172 10.7955 1.43683C10.7955 1.61195 10.6685 1.7535 10.5121 1.7535H10.2288C10.0724 1.7535 9.94547 1.61195 9.94547 1.43683C9.94547 1.26172 10.0724 1.12017 10.2288 1.12017ZM8.24547 1.12017H9.3788C9.5352 1.12017 9.66213 1.26172 9.66213 1.43683C9.66213 1.61195 9.5352 1.7535 9.3788 1.7535H8.24547C8.08907 1.7535 7.96213 1.61195 7.96213 1.43683C7.96213 1.26172 8.08907 1.12017 8.24547 1.12017ZM9.3788 18.2202C8.75377 18.2202 8.24547 17.6521 8.24547 16.9535C8.24547 16.2549 8.75377 15.6868 9.3788 15.6868C10.0038 15.6868 10.5121 16.2549 10.5121 16.9535C10.5121 17.6521 10.0038 18.2202 9.3788 18.2202ZM13.6288 14.7368H5.1288V2.7035H13.6288V14.7368Z" fill="black"/>
</svg>
