<svg width="18" height="19" viewBox="0 0 18 19" fill="none" xmlns="http://www.w3.org/2000/svg">
<path d="M17.0852 4.98809V4.96741C16.8961 4.20695 16.4024 3.42104 15.7548 2.75923C14.9982 1.98286 14.0348 1.37354 13.1147 1.17627H13.0954C10.3516 0.654459 7.53279 0.654459 4.7889 1.17627H4.76966C3.0609 1.54377 1.20628 3.31604 0.792714 4.96741V4.98809C0.28459 7.27754 0.28459 9.64932 0.792714 11.9388V11.9579C1.08766 13.1351 2.11355 14.3729 3.29654 15.1206C3.68288 15.3705 4.10342 15.5639 4.54525 15.6949V17.5372C4.54587 17.6844 4.59065 17.8281 4.67387 17.95C4.7571 18.0719 4.87501 18.1664 5.01256 18.2215C5.15012 18.2766 5.3011 18.2899 5.44625 18.2595C5.59141 18.2291 5.72417 18.1566 5.82762 18.051L7.70949 16.1101C8.11664 16.1324 8.527 16.1451 8.93416 16.1451C10.3279 16.1447 11.7185 16.0137 13.0874 15.7538H13.1067C14.8106 15.3847 16.6668 13.6124 17.0772 11.961V11.942C17.5884 9.65206 17.5912 7.27914 17.0852 4.98809ZM15.5961 11.5983C15.3204 12.6754 13.913 14.0165 12.7925 14.2631C11.3372 14.5398 9.856 14.6598 8.37472 14.621C8.3603 14.6202 8.34587 14.6226 8.33253 14.6281C8.31919 14.6336 8.3073 14.6421 8.29778 14.6529L6.92404 16.0529L5.46214 17.5404C5.43876 17.5649 5.40849 17.5819 5.37526 17.5892C5.34203 17.5964 5.30736 17.5936 5.27576 17.5811C5.24415 17.5686 5.21706 17.5469 5.19799 17.519C5.17892 17.491 5.16875 17.458 5.1688 17.4242V14.3697C5.16884 14.3451 5.1602 14.3213 5.14438 14.3024C5.12857 14.2835 5.10658 14.2707 5.08224 14.2663C4.84853 14.2112 4.62322 14.1256 4.4122 14.0117C3.46004 13.5074 2.49987 12.4733 2.27866 11.5983C1.82047 9.52884 1.82047 7.3853 2.27866 5.31582C2.55277 4.24354 3.96818 2.90559 5.08064 2.65741C7.62814 2.17364 10.245 2.17364 12.7925 2.65741C13.4096 2.79423 14.1149 3.26036 14.6663 3.83309C15.12 4.29923 15.4678 4.83695 15.5961 5.32059C16.0535 7.38854 16.0535 9.53037 15.5961 11.5983Z" fill="white"/>
<path d="M12.8323 11.7575C12.624 12.2291 12.266 12.6203 11.8128 12.8711C11.6706 12.931 11.523 12.9773 11.372 13.0095C11.2005 12.9586 11.037 12.9236 10.8911 12.8615C9.67597 12.3923 8.5448 11.7321 7.54089 10.9063C7.24269 10.6539 6.96256 10.3812 6.70254 10.0902C6.06046 9.35631 5.52126 8.53968 5.09958 7.66246C4.8944 7.24723 4.72128 6.81768 4.54496 6.38973C4.38466 5.99996 4.6219 5.59428 4.86555 5.30314C5.10405 5.03314 5.3974 4.81627 5.72634 4.66678C5.84209 4.60904 5.97455 4.59334 6.10075 4.6224C6.22694 4.65146 6.33891 4.72344 6.41722 4.82587C6.82677 5.28255 7.18774 5.77995 7.49441 6.31018C7.59101 6.46436 7.62409 6.64953 7.58678 6.82727C7.54947 7.00501 7.44464 7.16167 7.29404 7.26473C7.21389 7.32041 7.13374 7.38405 7.06481 7.44609C6.99687 7.49604 6.93827 7.55742 6.89169 7.62746C6.85151 7.693 6.82712 7.76688 6.82045 7.84333C6.81378 7.91977 6.82499 7.99671 6.85322 8.06814C7.1626 8.91291 7.63226 9.61768 8.33436 10.1125C8.57197 10.2792 8.82796 10.4185 9.09737 10.5277C9.27331 10.6226 9.47098 10.6709 9.67123 10.6677C10.0207 10.6263 10.1361 10.2429 10.3797 10.0456C10.4916 9.95476 10.63 9.90211 10.7744 9.89551C10.9188 9.88892 11.0614 9.92874 11.1812 10.009C11.4409 10.1681 11.691 10.3479 11.941 10.5229C12.1884 10.6904 12.4265 10.871 12.6543 11.0638C12.7609 11.1406 12.837 11.2521 12.8695 11.3787C12.902 11.5054 12.8889 11.6394 12.8323 11.7575Z" fill="white"/>
<path d="M9.39707 4.13374H9.19189C9.25762 4.13056 9.32654 4.13374 9.39707 4.13374Z" fill="white"/>
<path d="M12.9443 8.90172C12.784 8.90172 12.7055 8.76649 12.6943 8.61853C12.6734 8.3274 12.6574 8.03467 12.6173 7.74512C12.5481 7.2566 12.3766 6.78786 12.114 6.36899C11.8441 5.93263 11.4849 5.55734 11.0597 5.26741C10.6345 4.97747 10.1527 4.77933 9.64544 4.68581C9.41462 4.64444 9.17898 4.6349 8.94655 4.61103C8.79908 4.59512 8.60512 4.58558 8.57306 4.40421C8.56827 4.36899 8.57111 4.33316 8.58139 4.29911C8.59167 4.26506 8.60915 4.23358 8.63267 4.20678C8.65619 4.17997 8.6852 4.15846 8.71777 4.14367C8.75034 4.12888 8.78571 4.12117 8.82152 4.12103C8.85996 4.11884 8.8985 4.11884 8.93693 4.12103C9.6376 4.12692 10.326 4.30421 10.9411 4.63722C11.5562 4.97022 12.0791 5.44865 12.4634 6.03012C12.7668 6.49881 12.9729 7.02293 13.0694 7.57172C13.1303 7.91535 13.1527 8.26853 13.18 8.61853C13.1854 8.65283 13.1835 8.6879 13.1743 8.7214C13.1651 8.75491 13.1488 8.78608 13.1265 8.81286C13.1042 8.83964 13.0764 8.86141 13.045 8.87673C13.0136 8.89205 12.9793 8.90056 12.9443 8.90172Z" fill="white"/>
<path d="M12.0773 8.15877C12.0763 8.20602 12.0699 8.253 12.058 8.29877C12.044 8.34476 12.0161 8.38536 11.978 8.41504C11.9399 8.44472 11.8936 8.46204 11.8452 8.46465C11.7969 8.46726 11.7489 8.45502 11.7078 8.42961C11.6667 8.4042 11.6345 8.36685 11.6156 8.32263C11.598 8.25839 11.5899 8.19193 11.5916 8.12536C11.5953 7.76952 11.5243 7.4168 11.3832 7.08968C11.3511 7.01968 11.3158 6.94808 11.2758 6.87968C11.0463 6.48716 10.7058 6.17017 10.2964 5.96809C10.0494 5.85234 9.78707 5.772 9.51732 5.72945C9.3987 5.71036 9.28008 5.69922 9.16146 5.68331C9.13059 5.68177 9.10036 5.67397 9.07265 5.66037C9.04493 5.64678 9.02032 5.62768 9.00034 5.60427C8.98036 5.58086 8.96543 5.55363 8.95647 5.52426C8.94751 5.4949 8.94472 5.46402 8.94827 5.43354C8.94829 5.40236 8.95495 5.37154 8.96781 5.3431C8.98068 5.31465 8.99946 5.28923 9.02292 5.2685C9.04638 5.24777 9.074 5.23219 9.10395 5.2228C9.13391 5.21341 9.16552 5.21041 9.19673 5.21399C9.66741 5.23202 10.1285 5.35145 10.548 5.56399C11.0603 5.81985 11.4782 6.2296 11.7422 6.7349C11.8909 7.02994 11.9905 7.34692 12.0372 7.67354C12.0458 7.71614 12.0522 7.75915 12.0564 7.8024C12.0644 7.89786 12.0676 7.99331 12.0756 8.11104C12.0756 8.12218 12.0773 8.13649 12.0773 8.15877Z" fill="white"/>
<path d="M10.9793 7.9392C10.9702 7.97953 10.9492 8.01624 10.9189 8.04459C10.8886 8.07295 10.8504 8.09165 10.8093 8.09829H10.7741C10.7216 8.10166 10.6694 8.08796 10.6254 8.05925C10.5814 8.03055 10.5481 7.9884 10.5304 7.9392C10.5205 7.91311 10.514 7.88583 10.5112 7.85806C10.5028 7.75101 10.4867 7.64468 10.4631 7.53988C10.4155 7.32772 10.294 7.13902 10.1201 7.00692C10.036 6.94701 9.9422 6.90181 9.84276 6.87329C9.71612 6.8367 9.58308 6.84624 9.45805 6.81602C9.39625 6.80515 9.34131 6.77041 9.30525 6.71942C9.2692 6.66844 9.25498 6.60535 9.26569 6.54397C9.27762 6.48518 9.31073 6.43272 9.35883 6.3964C9.40692 6.36009 9.4667 6.34242 9.52697 6.3467C10.2611 6.3992 10.8093 6.7492 10.9504 7.53033C10.9649 7.60285 10.9751 7.67616 10.9809 7.74988C10.9898 7.81271 10.9893 7.87652 10.9793 7.9392Z" fill="white"/>
</svg>
