<svg width="17" height="17" viewBox="0 0 17 17" fill="none" xmlns="http://www.w3.org/2000/svg">
<path fill-rule="evenodd" clip-rule="evenodd" d="M8.14954 14.9735C7.00067 14.9735 5.86998 14.67 4.8809 14.0963C4.72166 14.0039 4.52991 13.9793 4.35193 14.0274L2.2013 14.6131L2.95069 12.9752C3.05263 12.7526 3.02618 12.4929 2.88236 12.2944C2.08063 11.1924 1.65745 9.89029 1.65745 8.53021C1.65745 4.97716 4.56958 2.08693 8.14954 2.08693C11.7295 2.08693 14.6416 4.97716 14.6416 8.53021C14.6416 12.0833 11.7295 14.9735 8.14954 14.9735ZM8.14954 0.723022C3.81193 0.723022 0.28376 4.22521 0.28376 8.53021C0.28376 10.0445 0.71631 11.4986 1.54008 12.7608L0.344923 15.3733C0.23472 15.6144 0.274944 15.8966 0.447413 16.0979C0.580208 16.2515 0.772513 16.3374 0.970329 16.3374C1.41335 16.3374 3.82956 15.5838 4.4445 15.4159C5.58125 16.0197 6.85575 16.3374 8.14954 16.3374C12.4866 16.3374 16.0159 12.8347 16.0159 8.53021C16.0159 4.22521 12.4866 0.723569 8.14954 0.723022Z" fill="white"/>
<path fill-rule="evenodd" clip-rule="evenodd" d="M10.027 9.44291C9.7295 9.56377 9.5394 10.0264 9.34654 10.2627C9.24736 10.3835 9.12944 10.4027 8.97736 10.342C7.85989 9.90009 7.00306 9.15963 6.38647 8.13916C6.28178 7.98111 6.30051 7.85587 6.4267 7.70877C6.61294 7.49111 6.84712 7.24392 6.89727 6.95025C7.00912 6.30166 6.15449 4.28861 5.02546 5.2008C1.77721 7.82798 10.4442 14.7957 12.0085 11.0272C12.451 9.95861 10.5208 9.2422 10.027 9.44291Z" fill="white"/>
</svg>
